<?xml version="1.0" encoding="utf-8"?>
<svg xmlns="http://www.w3.org/2000/svg" viewBox="0 0 48 48" width="32" height="32">
  <path d="M15.5 6C10.253 6 6 10.253 6 15.5L6 32.859375C6 34.196375 6.66825 35.4455 7.78125 36.1875L9 37L9 15.5C9 11.91 11.91 9 15.5 9L37 9L36.1875 7.78125C35.4465 6.66825 34.197375 6 32.859375 6L15.5 6 z M 16.5 11C13.480226 11 11 13.480226 11 16.5L11 36.5C11 39.519774 13.480226 42 16.5 42L36.5 42C39.519774 42 42 39.519774 42 36.5L42 16.5C42 13.480226 39.519774 11 36.5 11L16.5 11 z M 16.5 14L36.5 14C37.898226 14 39 15.101774 39 16.5L39 36.5C39 37.898226 37.898226 39 36.5 39L16.5 39C15.101774 39 14 37.898226 14 36.5L14 16.5C14 15.101774 15.101774 14 16.5 14 z" fill="#FFFFFF" />
</svg>