<svg width="20" height="15" viewBox="0 0 20 15" fill="black" xmlns="http://www.w3.org/2000/svg">
<path d="M16.9645 1.68267C16.9591 1.67277 16.9502 1.66502 16.9394 1.66079C15.6885 1.11419 14.3684 0.724416 13.0122 0.501231C12.9999 0.499049 12.9872 0.500623 12.9758 0.505728C12.9645 0.510834 12.9552 0.519211 12.9491 0.529668C12.7694 0.840383 12.6062 1.15954 12.4602 1.48592C10.9983 1.27457 9.51128 1.27457 8.04937 1.48592C7.90242 1.15871 7.73663 0.839475 7.55275 0.529668C7.54644 0.519438 7.53705 0.511254 7.52579 0.506182C7.51452 0.501109 7.50192 0.499384 7.48962 0.501231C6.13327 0.723947 4.81311 1.11375 3.56235 1.66082C3.55165 1.66515 3.54261 1.67253 3.5365 1.68195C1.03523 5.23939 0.350044 8.70935 0.686175 12.1364C0.687121 12.1448 0.68983 12.1529 0.694142 12.1603C0.698455 12.1676 0.704282 12.1741 0.711277 12.1793C2.16774 13.2064 3.79681 13.9903 5.52897 14.4977C5.54117 14.5012 5.5542 14.5011 5.5663 14.4973C5.5784 14.4935 5.589 14.4863 5.59666 14.4766C5.96869 13.9945 6.29834 13.484 6.58225 12.9503C6.58615 12.943 6.58838 12.9349 6.58879 12.9267C6.58919 12.9185 6.58777 12.9103 6.58461 12.9027C6.58145 12.8951 6.57663 12.8881 6.57046 12.8824C6.56429 12.8767 6.55691 12.8722 6.54882 12.8694C6.02899 12.68 5.52573 12.4516 5.04377 12.1865C5.03502 12.1816 5.02767 12.1747 5.02236 12.1665C5.01706 12.1582 5.01398 12.1489 5.01338 12.1392C5.01278 12.1296 5.01468 12.1199 5.01892 12.1111C5.02317 12.1023 5.02962 12.0947 5.0377 12.0888C5.13883 12.0167 5.24003 11.9416 5.33659 11.8658C5.34517 11.8591 5.35555 11.8547 5.36657 11.8533C5.37758 11.8519 5.38879 11.8535 5.39894 11.8578C8.55645 13.2302 11.9749 13.2302 15.095 11.8578C15.1052 11.8532 15.1165 11.8514 15.1277 11.8527C15.1389 11.854 15.1494 11.8583 15.1582 11.8651C15.2548 11.9409 15.3559 12.0167 15.4578 12.0888C15.4659 12.0946 15.4724 12.1022 15.4768 12.111C15.4811 12.1197 15.483 12.1294 15.4825 12.139C15.482 12.1487 15.479 12.1581 15.4737 12.1663C15.4685 12.1746 15.4612 12.1816 15.4525 12.1865C14.9716 12.4539 14.4679 12.6821 13.9467 12.8687C13.9386 12.8716 13.9313 12.8762 13.9251 12.882C13.919 12.8878 13.9142 12.8948 13.9111 12.9025C13.9081 12.9102 13.9067 12.9184 13.9072 12.9267C13.9076 12.9349 13.9099 12.943 13.9139 12.9503C14.2026 13.481 14.5317 13.9909 14.8987 14.4758C14.9062 14.4857 14.9167 14.4932 14.9289 14.4971C14.941 14.501 14.9542 14.5012 14.9664 14.4976C16.7017 13.992 18.3336 13.2079 19.7919 12.1793C19.799 12.1744 19.8049 12.1681 19.8093 12.1608C19.8136 12.1535 19.8162 12.1454 19.817 12.1371C20.2194 8.17511 19.1433 4.73357 16.9645 1.68267ZM7.0538 10.0497C6.10316 10.0497 5.31986 9.21882 5.31986 8.19845C5.31986 7.17807 6.08797 6.34717 7.0538 6.34717C8.02718 6.34717 8.80291 7.18529 8.78771 8.19839C8.78771 9.21882 8.01957 10.0497 7.0538 10.0497ZM13.4647 10.0497C12.5141 10.0497 11.7308 9.21882 11.7308 8.19845C11.7308 7.17807 12.4989 6.34717 13.4647 6.34717C14.4382 6.34717 15.2138 7.18529 15.1987 8.19839C15.1987 9.21882 14.4382 10.0497 13.4647 10.0497Z" />
</svg>
